<svg width="158" height="48" viewBox="0 0 158 48" fill="none" xmlns="http://www.w3.org/2000/svg">
<rect width="158" height="48" rx="4" fill="black"/>
<path d="M67.2912 31V17.9091H75.8054V19.897H69.6626V23.451H75.3643V25.4389H69.6626V29.0121H75.8565V31H67.2912ZM84.0735 24.5952V26.5H78.18V24.5952H84.0735ZM86.5073 31V21.1818H88.7189V22.8501H88.834C89.0385 22.2876 89.3773 21.8487 89.8503 21.5334C90.3233 21.2138 90.888 21.054 91.5442 21.054C92.209 21.054 92.7694 21.2159 93.2253 21.5398C93.6855 21.8594 94.0094 22.2962 94.1969 22.8501H94.2992C94.5165 22.3047 94.883 21.87 95.3986 21.5462C95.9185 21.218 96.5343 21.054 97.2459 21.054C98.1493 21.054 98.8865 21.3395 99.4576 21.9105C100.029 22.4815 100.314 23.3146 100.314 24.4098V31H97.9938V24.7678C97.9938 24.1584 97.8319 23.7131 97.508 23.4318C97.1841 23.1463 96.7878 23.0036 96.3191 23.0036C95.7608 23.0036 95.324 23.1783 95.0087 23.5277C94.6976 23.8729 94.5421 24.3224 94.5421 24.8764V31H92.2729V24.6719C92.2729 24.1648 92.1195 23.7599 91.8127 23.4574C91.5101 23.1548 91.1138 23.0036 90.6238 23.0036C90.2914 23.0036 89.9888 23.0888 89.7161 23.2592C89.4434 23.4254 89.226 23.6619 89.0641 23.9688C88.9022 24.2713 88.8212 24.625 88.8212 25.0298V31H86.5073ZM105.487 31.1982C104.865 31.1982 104.304 31.0874 103.806 30.8658C103.311 30.6399 102.919 30.3075 102.63 29.8686C102.344 29.4297 102.201 28.8885 102.201 28.245C102.201 27.6911 102.304 27.233 102.508 26.8707C102.713 26.5085 102.992 26.2188 103.346 26.0014C103.699 25.7841 104.098 25.62 104.541 25.5092C104.988 25.3942 105.451 25.3111 105.928 25.2599C106.503 25.2003 106.97 25.147 107.328 25.1001C107.686 25.049 107.946 24.9723 108.108 24.87C108.274 24.7635 108.357 24.5994 108.357 24.3778V24.3395C108.357 23.858 108.214 23.4851 107.929 23.2209C107.643 22.9567 107.232 22.8246 106.695 22.8246C106.128 22.8246 105.679 22.9482 105.346 23.1953C105.018 23.4425 104.797 23.7344 104.681 24.071L102.521 23.7642C102.691 23.1676 102.973 22.669 103.365 22.2685C103.757 21.8636 104.236 21.5611 104.803 21.3608C105.37 21.1562 105.996 21.054 106.682 21.054C107.155 21.054 107.626 21.1094 108.095 21.2202C108.564 21.331 108.992 21.5142 109.38 21.7699C109.767 22.0213 110.078 22.3643 110.313 22.799C110.551 23.2337 110.671 23.777 110.671 24.429V31H108.446V29.6513H108.37C108.229 29.924 108.031 30.1797 107.775 30.4183C107.524 30.6527 107.206 30.8423 106.823 30.9872C106.444 31.1278 105.998 31.1982 105.487 31.1982ZM106.088 29.4979C106.552 29.4979 106.955 29.4062 107.296 29.223C107.637 29.0355 107.899 28.7884 108.082 28.4815C108.27 28.1747 108.363 27.8402 108.363 27.478V26.321C108.291 26.3807 108.167 26.4361 107.993 26.4872C107.822 26.5384 107.63 26.5831 107.417 26.6214C107.204 26.6598 106.993 26.6939 106.784 26.7237C106.576 26.7536 106.395 26.7791 106.241 26.8004C105.896 26.8473 105.587 26.924 105.314 27.0305C105.042 27.1371 104.826 27.2862 104.669 27.478C104.511 27.6655 104.432 27.9084 104.432 28.2067C104.432 28.6328 104.588 28.9545 104.899 29.1719C105.21 29.3892 105.606 29.4979 106.088 29.4979ZM112.998 31V21.1818H115.311V31H112.998ZM114.161 19.7884C113.794 19.7884 113.479 19.6669 113.215 19.424C112.951 19.1768 112.819 18.8807 112.819 18.5355C112.819 18.1861 112.951 17.8899 113.215 17.647C113.479 17.3999 113.794 17.2763 114.161 17.2763C114.532 17.2763 114.847 17.3999 115.107 17.647C115.371 17.8899 115.503 18.1861 115.503 18.5355C115.503 18.8807 115.371 19.1768 115.107 19.424C114.847 19.6669 114.532 19.7884 114.161 19.7884ZM120.005 17.9091V31H117.691V17.9091H120.005Z" fill="white"/>
<path d="M54 19L46 24L38 19V17L46 22L54 17M54 15H38C36.89 15 36 15.89 36 17V29C36 29.5304 36.2107 30.0391 36.5858 30.4142C36.9609 30.7893 37.4696 31 38 31H54C54.5304 31 55.0391 30.7893 55.4142 30.4142C55.7893 30.0391 56 29.5304 56 29V17C56 15.89 55.1 15 54 15Z" fill="white"/>
</svg>
