<svg width="158" height="48" viewBox="0 0 158 48" fill="none" xmlns="http://www.w3.org/2000/svg">
<rect width="158" height="48" rx="4" fill="black"/>
<path d="M74.0611 22.0895C73.9545 21.7443 73.8075 21.4354 73.62 21.1626C73.4368 20.8857 73.2152 20.6491 72.9553 20.4531C72.6996 20.2571 72.4055 20.1101 72.0732 20.0121C71.7408 19.9098 71.3786 19.8587 70.9865 19.8587C70.2834 19.8587 69.657 20.0355 69.1072 20.3892C68.5575 20.7429 68.125 21.2628 67.8097 21.9489C67.4986 22.6307 67.343 23.4616 67.343 24.4418C67.343 25.4304 67.4986 26.2678 67.8097 26.9538C68.1207 27.6399 68.5533 28.1619 69.1072 28.5199C69.6612 28.8736 70.3047 29.0504 71.0376 29.0504C71.7024 29.0504 72.2777 28.9226 72.7635 28.6669C73.2536 28.4112 73.6307 28.049 73.8949 27.5803C74.1591 27.1072 74.2912 26.5533 74.2912 25.9183L74.8281 26.0014H71.2741V24.1477H76.5859V25.7202C76.5859 26.8409 76.3473 27.8104 75.87 28.6286C75.3928 29.4467 74.7365 30.0774 73.9013 30.5206C73.0661 30.9595 72.1072 31.179 71.0249 31.179C69.8189 31.179 68.7599 30.9084 67.848 30.3672C66.9403 29.8217 66.2308 29.0483 65.7195 28.0469C65.2124 27.0412 64.9588 25.848 64.9588 24.4673C64.9588 23.4105 65.108 22.4666 65.4062 21.6357C65.7088 20.8047 66.1307 20.0994 66.6719 19.5199C67.2131 18.9361 67.848 18.4929 68.5767 18.1903C69.3054 17.8835 70.098 17.7301 70.9545 17.7301C71.679 17.7301 72.3544 17.8366 72.9808 18.0497C73.6072 18.2585 74.1634 18.5568 74.6491 18.9446C75.1392 19.3324 75.5419 19.7926 75.8572 20.3253C76.1726 20.858 76.3793 21.446 76.4773 22.0895H74.0611ZM79.392 31V21.1818H81.706V31H79.392ZM80.5554 19.7884C80.1889 19.7884 79.8736 19.6669 79.6094 19.424C79.3452 19.1768 79.2131 18.8807 79.2131 18.5355C79.2131 18.1861 79.3452 17.8899 79.6094 17.647C79.8736 17.3999 80.1889 17.2763 80.5554 17.2763C80.9261 17.2763 81.2415 17.3999 81.5014 17.647C81.7656 17.8899 81.8977 18.1861 81.8977 18.5355C81.8977 18.8807 81.7656 19.1768 81.5014 19.424C81.2415 19.6669 80.9261 19.7884 80.5554 19.7884ZM88.9881 21.1818V22.9716H83.3439V21.1818H88.9881ZM84.7374 18.8295H87.0513V28.0469C87.0513 28.358 87.0982 28.5966 87.1919 28.7628C87.29 28.9247 87.4178 29.0355 87.5755 29.0952C87.7331 29.1548 87.9078 29.1847 88.0996 29.1847C88.2445 29.1847 88.3766 29.174 88.4959 29.1527C88.6195 29.1314 88.7132 29.1122 88.7772 29.0952L89.1671 30.9041C89.0435 30.9467 88.8667 30.9936 88.6365 31.0447C88.4107 31.0959 88.1337 31.1257 87.8056 31.1342C87.226 31.1513 86.704 31.0639 86.2395 30.8722C85.775 30.6761 85.4064 30.3736 85.1337 29.9645C84.8652 29.5554 84.7331 29.044 84.7374 28.4304V18.8295ZM93.4482 25.2472V31H91.1342V17.9091H93.397V22.8501H93.5121C93.7422 22.2962 94.098 21.8594 94.5795 21.5398C95.0653 21.2159 95.6832 21.054 96.4332 21.054C97.1151 21.054 97.7095 21.1967 98.2166 21.4822C98.7237 21.7678 99.1158 22.1854 99.3928 22.7351C99.674 23.2848 99.8146 23.956 99.8146 24.7486V31H97.5007V25.1065C97.5007 24.446 97.3303 23.9325 96.9893 23.5661C96.6527 23.1953 96.1797 23.0099 95.5703 23.0099C95.1612 23.0099 94.7947 23.0994 94.4709 23.2784C94.1513 23.4531 93.8999 23.7067 93.7166 24.0391C93.5376 24.3714 93.4482 24.7741 93.4482 25.2472ZM108.431 26.8707V21.1818H110.745V31H108.501V29.255H108.399C108.178 29.8047 107.813 30.2543 107.306 30.6037C106.803 30.9531 106.183 31.1278 105.446 31.1278C104.803 31.1278 104.234 30.9851 103.739 30.6996C103.249 30.4098 102.866 29.9901 102.589 29.4403C102.312 28.8864 102.173 28.2173 102.173 27.4332V21.1818H104.487V27.0753C104.487 27.6974 104.658 28.1918 104.999 28.5582C105.339 28.9247 105.787 29.108 106.341 29.108C106.682 29.108 107.012 29.0249 107.332 28.8587C107.651 28.6925 107.913 28.4453 108.118 28.1172C108.327 27.7848 108.431 27.3693 108.431 26.8707ZM113.227 31V17.9091H115.541V22.8054H115.637C115.756 22.5668 115.924 22.3132 116.142 22.0447C116.359 21.772 116.653 21.5398 117.024 21.348C117.394 21.152 117.867 21.054 118.443 21.054C119.201 21.054 119.885 21.2479 120.494 21.6357C121.108 22.0192 121.594 22.5881 121.952 23.3423C122.314 24.0923 122.495 25.0128 122.495 26.1037C122.495 27.1818 122.318 28.098 121.965 28.8523C121.611 29.6065 121.129 30.1818 120.52 30.5781C119.911 30.9744 119.22 31.1726 118.449 31.1726C117.887 31.1726 117.42 31.0788 117.049 30.8913C116.678 30.7038 116.38 30.478 116.154 30.2138C115.933 29.9453 115.76 29.6918 115.637 29.4531H115.502V31H113.227ZM115.496 26.0909C115.496 26.7259 115.585 27.282 115.764 27.7592C115.948 28.2365 116.21 28.6094 116.551 28.8778C116.896 29.142 117.313 29.2741 117.803 29.2741C118.315 29.2741 118.743 29.1378 119.088 28.8651C119.433 28.5881 119.693 28.2109 119.868 27.7337C120.047 27.2521 120.137 26.7045 120.137 26.0909C120.137 25.4815 120.049 24.9403 119.874 24.4673C119.7 23.9943 119.44 23.6236 119.095 23.3551C118.749 23.0866 118.319 22.9524 117.803 22.9524C117.309 22.9524 116.889 23.0824 116.544 23.3423C116.199 23.6023 115.937 23.9666 115.758 24.4354C115.583 24.9041 115.496 25.456 115.496 26.0909Z" fill="white"/>
<path d="M44 13C42.6868 13 41.3864 13.2587 40.1732 13.7612C38.9599 14.2638 37.8575 15.0003 36.9289 15.9289C35.0536 17.8043 34 20.3478 34 23C34 27.42 36.87 31.17 40.84 32.5C41.34 32.58 41.5 32.27 41.5 32C41.5 31.77 41.5 31.14 41.5 30.31C38.73 30.91 38.14 28.97 38.14 28.97C37.68 27.81 37.03 27.5 37.03 27.5C36.12 26.88 37.1 26.9 37.1 26.9C38.1 26.97 38.63 27.93 38.63 27.93C39.5 29.45 40.97 29 41.54 28.76C41.63 28.11 41.89 27.67 42.17 27.42C39.95 27.17 37.62 26.31 37.62 22.5C37.62 21.39 38 20.5 38.65 19.79C38.55 19.54 38.2 18.5 38.75 17.15C38.75 17.15 39.59 16.88 41.5 18.17C42.29 17.95 43.15 17.84 44 17.84C44.85 17.84 45.71 17.95 46.5 18.17C48.41 16.88 49.25 17.15 49.25 17.15C49.8 18.5 49.45 19.54 49.35 19.79C50 20.5 50.38 21.39 50.38 22.5C50.38 26.32 48.04 27.16 45.81 27.41C46.17 27.72 46.5 28.33 46.5 29.26C46.5 30.6 46.5 31.68 46.5 32C46.5 32.27 46.66 32.59 47.17 32.5C51.14 31.16 54 27.42 54 23C54 21.6868 53.7413 20.3864 53.2388 19.1732C52.7362 17.9599 51.9997 16.8575 51.0711 15.9289C50.1425 15.0003 49.0401 14.2638 47.8268 13.7612C46.6136 13.2587 45.3132 13 44 13V13Z" fill="white"/>
</svg>
