<svg width="495" height="146" viewBox="0 0 495 146" fill="none" xmlns="http://www.w3.org/2000/svg">
<path d="M7 115.5C11.5466 102.339 95.2221 5.94942 73.3592 7.96754C57.4262 9.43828 52.3549 30.1061 49.6953 42.7833C47.3874 53.7843 44.4113 64.184 43.9154 75.4911C43.1481 92.9848 43.4677 110.055 40.3114 117.375C37.7561 161.396 38.1712 130.922 39.0194 124.043C40.9284 108.559 48.2113 96.2623 61.5953 88.2751C73.7832 81.0016 95.5324 71.4949 99.8106 92.559C102.196 104.3 96.2918 116.205 98.7906 127.511C100.431 134.926 109.931 137.699 116.335 138.663C128.98 140.566 140.75 136.043 152.239 131.319C171.07 123.576 190.567 111.365 190.727 88.7511C190.832 73.9398 172.385 69.4974 161.079 76.1031C151.285 81.8257 147.928 99.5644 149.995 109.899C151.625 118.047 157.883 128.362 164.479 133.359C177.694 143.37 197.693 138.297 211.875 133.495C241.281 123.538 265.322 92.3831 277.154 64.5432C282.259 52.5317 301.033 10.4005 274.91 10.6875C252.056 10.9387 244.353 40.4086 242.407 58.2872C240.257 78.0338 238.513 102.269 245.943 121.255C256.568 148.409 295.543 133.264 312.582 120.643C320.954 114.441 326.856 106.293 333.118 98.135C338.893 90.6117 345.596 83.8617 350.186 75.4911C357.878 61.4647 364.123 41.8913 365.758 26.0554C366.612 17.7852 364.121 8.58533 354.606 7.15154C343.768 5.51847 339.608 17.4583 335.294 24.9674C324.944 42.9847 321.512 60.8358 318.294 81.2711C316.285 94.0325 316.291 106.156 321.966 118.059C325.339 125.133 331.481 135.126 340.054 136.351C363.954 139.765 376.995 126.91 388.742 107.995C393.351 100.574 396.397 91.8434 401.254 84.6711C406.227 77.3259 420.008 75.9671 427.978 75.9671C447.633 75.9671 469.706 93.5621 487.409 77.1231C492.36 72.5257 476.635 86.5304 469.933 87.3911C461.348 88.4938 451.574 81.3392 443.821 78.7551C422.812 71.752 397.858 79.5316 392.822 103.575C391.241 111.122 391.843 121.201 395.27 128.191C398.962 135.722 408.599 136.121 415.942 135.807C434.138 135.028 446.985 125.421 450.213 106.975C452.299 95.0568 447.507 87.2903 443.413 80.6471" stroke="#4682B4" stroke-width="13" stroke-linecap="round"/>
</svg>
