<svg width="214" height="152" viewBox="0 0 214 152" fill="none" xmlns="http://www.w3.org/2000/svg">
<path d="M84.2956 101.88C85.6823 101.88 86.749 102.573 87.4956 103.96C88.2423 105.347 88.6156 107.107 88.6156 109.24C88.6156 114.36 87.069 117.4 83.9756 118.36C77.5756 120.6 70.5356 121.88 62.8556 122.2C60.829 131.16 56.829 138.36 50.8556 143.8C44.8823 149.133 38.109 151.8 30.5356 151.8C24.1356 151.8 18.6423 150.253 14.0556 147.16C9.57563 144.067 6.16229 139.96 3.81563 134.84C1.46896 129.72 0.295625 124.173 0.295625 118.2C0.295625 110.093 1.84229 102.893 4.93563 96.6C8.02896 90.2 12.2956 85.24 17.7356 81.72C23.1756 78.0933 29.2023 76.28 35.8156 76.28C43.9223 76.28 50.429 79.1067 55.3356 84.76C60.349 90.3067 63.2823 97.1867 64.1356 105.4C69.149 105.08 75.1223 104.013 82.0556 102.2C82.909 101.987 83.6556 101.88 84.2956 101.88ZM31.8156 134.84C35.229 134.84 38.1623 133.453 40.6156 130.68C43.1756 127.907 44.8823 123.907 45.7356 118.68C42.429 116.44 39.869 113.507 38.0556 109.88C36.349 106.253 35.4956 102.413 35.4956 98.36C35.4956 96.6533 35.6556 94.9467 35.9756 93.24H35.1756C30.909 93.24 27.3356 95.32 24.4556 99.48C21.6823 103.533 20.2956 109.293 20.2956 116.76C20.2956 122.627 21.4156 127.107 23.6556 130.2C26.0023 133.293 28.7223 134.84 31.8156 134.84ZM135.523 115.32C136.91 115.32 137.976 115.96 138.723 117.24C139.576 118.52 140.003 120.28 140.003 122.52C140.003 126.787 138.99 130.093 136.963 132.44C132.376 138.093 127.363 142.733 121.923 146.36C116.59 149.987 110.51 151.8 103.683 151.8C94.2965 151.8 87.3098 147.533 82.7231 139C78.2431 130.467 76.0031 119.427 76.0031 105.88C76.0031 92.8667 77.6565 78.04 80.9631 61.4C84.3765 44.76 89.3365 30.4667 95.8431 18.52C102.456 6.57332 110.296 0.599991 119.363 0.599991C124.483 0.599991 128.483 2.99999 131.363 7.79999C134.35 12.4933 135.843 19.2667 135.843 28.12C135.843 40.8133 132.323 55.5333 125.283 72.28C118.243 89.0267 108.696 105.613 96.6431 122.04C97.3898 126.413 98.6165 129.56 100.323 131.48C102.03 133.293 104.27 134.2 107.043 134.2C111.416 134.2 115.256 132.973 118.563 130.52C121.87 127.96 126.083 123.64 131.203 117.56C132.483 116.067 133.923 115.32 135.523 115.32ZM115.843 16.44C113.39 16.44 110.616 20.8667 107.523 29.72C104.43 38.5733 101.71 49.56 99.3631 62.68C97.0165 75.8 95.7365 88.3867 95.5231 100.44C103.096 87.96 109.123 75.48 113.603 63C118.083 50.4133 120.323 38.9467 120.323 28.6C120.323 20.4933 118.83 16.44 115.843 16.44ZM145.188 151.8C138.575 151.8 133.295 149.4 129.348 144.6C125.401 139.8 123.428 133.507 123.428 125.72C123.428 117.187 125.401 109.133 129.348 101.56C133.295 93.88 138.521 87.7467 145.028 83.16C151.641 78.4667 158.628 76.12 165.988 76.12C168.335 76.12 169.881 76.6 170.628 77.56C171.481 78.4133 172.175 80.0133 172.708 82.36C174.948 81.9333 177.295 81.72 179.748 81.72C184.975 81.72 187.588 83.5867 187.588 87.32C187.588 89.56 186.788 94.8933 185.188 103.32C182.735 115.587 181.508 124.12 181.508 128.92C181.508 130.52 181.881 131.8 182.628 132.76C183.481 133.72 184.548 134.2 185.828 134.2C187.855 134.2 190.308 132.92 193.188 130.36C196.068 127.693 199.961 123.427 204.868 117.56C206.148 116.067 207.588 115.32 209.188 115.32C210.575 115.32 211.641 115.96 212.388 117.24C213.241 118.52 213.668 120.28 213.668 122.52C213.668 126.787 212.655 130.093 210.628 132.44C206.255 137.88 201.615 142.467 196.708 146.2C191.801 149.933 187.055 151.8 182.468 151.8C178.948 151.8 175.695 150.627 172.708 148.28C169.828 145.827 167.641 142.52 166.148 138.36C160.601 147.32 153.615 151.8 145.188 151.8ZM150.948 135.64C153.295 135.64 155.535 134.253 157.668 131.48C159.801 128.707 161.348 125.027 162.308 120.44L168.228 91C163.748 91.1067 159.588 92.8133 155.748 96.12C152.015 99.32 149.028 103.587 146.788 108.92C144.548 114.253 143.428 119.907 143.428 125.88C143.428 129.187 144.068 131.64 145.348 133.24C146.735 134.84 148.601 135.64 150.948 135.64ZM167.428 65.88C165.935 65.88 164.601 65.3467 163.428 64.28C162.361 63.1067 161.828 61.72 161.828 60.12C161.828 59.3733 162.095 58.36 162.628 57.08L177.508 23.8C178.468 21.6667 179.695 20.12 181.188 19.16C182.788 18.0933 184.548 17.56 186.468 17.56C189.135 17.56 191.481 18.52 193.508 20.44C195.641 22.36 196.708 24.76 196.708 27.64C196.708 30.6267 195.535 33.6133 193.188 36.6L172.548 63.16C171.161 64.9733 169.455 65.88 167.428 65.88Z" fill="#FF0000" fill-opacity="0.4"/>
</svg>
