<svg width="51" height="45" viewBox="0 0 51 45" fill="none" xmlns="http://www.w3.org/2000/svg">
<path d="M20.5833 41.1667V3.16669H4.75V41.1667H20.5833Z" fill="#FFEDBA"/>
<path d="M9.50001 0C4.29232 0 0 4.29232 0 9.50001V34.8334C0 40.041 4.29232 44.3334 9.50001 44.3334H41.1667C46.3744 44.3334 50.6667 40.041 50.6667 34.8334V9.50001C50.6667 4.29232 46.3744 0 41.1667 0H9.50001ZM9.50001 6.33334H41.1667C42.9727 6.33334 44.3334 7.69402 44.3334 9.50001V34.8334C44.3334 36.6394 42.9727 38 41.1667 38H9.50001C7.69402 38 6.33334 36.6394 6.33334 34.8334V9.50001C6.33334 7.69402 7.69402 6.33334 9.50001 6.33334Z" fill="#FFBD08"/>
<path d="M19 3.16669H22.1667V41.1667H19V3.16669Z" fill="#FFBD08"/>
</svg>
