<svg width="51" height="45" viewBox="0 0 51 45" fill="none" xmlns="http://www.w3.org/2000/svg">
<path d="M30.0836 41.1667V3.16669H45.917V41.1667H30.0836Z" fill="#FFEDBA"/>
<path d="M41.167 0C46.3747 0 50.667 4.29232 50.667 9.50001V34.8334C50.667 40.041 46.3747 44.3334 41.167 44.3334H9.50029C4.29261 44.3334 0.000286102 40.041 0.000286102 34.8334V9.50001C0.000286102 4.29232 4.29261 0 9.50029 0H41.167ZM41.167 6.33334H9.50029C7.6943 6.33334 6.33362 7.69402 6.33362 9.50001V34.8334C6.33362 36.6393 7.6943 38 9.50029 38H41.167C42.973 38 44.3337 36.6393 44.3337 34.8334V9.50001C44.3337 7.69402 42.973 6.33334 41.167 6.33334Z" fill="#FFBD08"/>
<path d="M31.667 3.16669H28.5003V41.1667H31.667V3.16669Z" fill="#FFBD08"/>
</svg>
