<svg width="158" height="48" viewBox="0 0 158 48" fill="none" xmlns="http://www.w3.org/2000/svg">
<rect width="158" height="48" rx="4" fill="black"/>
<path d="M53.6626 17.9091V31H51.2912V17.9091H53.6626ZM58.4423 25.2472V31H56.1284V21.1818H58.34V22.8501H58.4551C58.6809 22.3004 59.041 21.8636 59.5353 21.5398C60.0339 21.2159 60.6497 21.054 61.3826 21.054C62.0602 21.054 62.6504 21.1989 63.1532 21.4886C63.6603 21.7784 64.0524 22.1982 64.3294 22.7479C64.6106 23.2976 64.7491 23.9645 64.7449 24.7486V31H62.4309V25.1065C62.4309 24.4503 62.2605 23.9368 61.9196 23.5661C61.5829 23.1953 61.1163 23.0099 60.5197 23.0099C60.1149 23.0099 59.7548 23.0994 59.4395 23.2784C59.1284 23.4531 58.8833 23.7067 58.7044 24.0391C58.5297 24.3714 58.4423 24.7741 58.4423 25.2472ZM74.8571 23.777L72.7477 24.0071C72.688 23.794 72.5836 23.5938 72.4345 23.4062C72.2896 23.2188 72.0936 23.0675 71.8464 22.9524C71.5993 22.8374 71.2967 22.7798 70.9387 22.7798C70.4572 22.7798 70.0524 22.8842 69.7243 23.093C69.4004 23.3018 69.2406 23.5724 69.2449 23.9048C69.2406 24.1903 69.345 24.4226 69.5581 24.6016C69.7754 24.7805 70.1333 24.9276 70.6319 25.0426L72.3066 25.4006C73.2356 25.6009 73.926 25.9183 74.3777 26.353C74.8336 26.7876 75.0637 27.3565 75.068 28.0597C75.0637 28.6776 74.8826 29.223 74.5247 29.696C74.171 30.1648 73.6788 30.5312 73.0481 30.7955C72.4174 31.0597 71.693 31.1918 70.8748 31.1918C69.6731 31.1918 68.7058 30.9403 67.9728 30.4375C67.2399 29.9304 66.8031 29.2251 66.6625 28.3217L68.9189 28.1044C69.0211 28.5476 69.2385 28.8821 69.5708 29.108C69.9032 29.3338 70.3358 29.4467 70.8684 29.4467C71.4181 29.4467 71.8592 29.3338 72.1916 29.108C72.5282 28.8821 72.6966 28.603 72.6966 28.2706C72.6966 27.9893 72.5879 27.7571 72.3706 27.5739C72.1575 27.3906 71.8251 27.25 71.3734 27.152L69.6987 26.8004C68.7569 26.6044 68.0602 26.2741 67.6085 25.8097C67.1568 25.3409 66.9331 24.7486 66.9373 24.0327C66.9331 23.4276 67.0971 22.9034 67.4295 22.4602C67.7662 22.0128 68.2328 21.6676 68.8294 21.4247C69.4302 21.1776 70.1227 21.054 70.9068 21.054C72.0574 21.054 72.9629 21.299 73.6234 21.7891C74.2882 22.2791 74.6994 22.9418 74.8571 23.777ZM81.8787 21.1818V22.9716H76.2346V21.1818H81.8787ZM77.628 18.8295H79.9419V28.0469C79.9419 28.358 79.9888 28.5966 80.0826 28.7628C80.1806 28.9247 80.3084 29.0355 80.4661 29.0952C80.6238 29.1548 80.7985 29.1847 80.9902 29.1847C81.1351 29.1847 81.2672 29.174 81.3865 29.1527C81.5101 29.1314 81.6039 29.1122 81.6678 29.0952L82.0577 30.9041C81.9341 30.9467 81.7573 30.9936 81.5272 31.0447C81.3013 31.0959 81.0243 31.1257 80.6962 31.1342C80.1167 31.1513 79.5946 31.0639 79.1301 30.8722C78.6657 30.6761 78.2971 30.3736 78.0243 29.9645C77.7559 29.5554 77.6238 29.044 77.628 28.4304V18.8295ZM86.6392 31.1982C86.017 31.1982 85.4567 31.0874 84.9581 30.8658C84.4638 30.6399 84.0717 30.3075 83.782 29.8686C83.4964 29.4297 83.3537 28.8885 83.3537 28.245C83.3537 27.6911 83.456 27.233 83.6605 26.8707C83.8651 26.5085 84.1442 26.2188 84.4979 26.0014C84.8516 25.7841 85.25 25.62 85.6932 25.5092C86.1406 25.3942 86.603 25.3111 87.0803 25.2599C87.6555 25.2003 88.1222 25.147 88.4801 25.1001C88.8381 25.049 89.098 24.9723 89.2599 24.87C89.4261 24.7635 89.5092 24.5994 89.5092 24.3778V24.3395C89.5092 23.858 89.3665 23.4851 89.081 23.2209C88.7955 22.9567 88.3842 22.8246 87.8473 22.8246C87.2805 22.8246 86.831 22.9482 86.4986 23.1953C86.1705 23.4425 85.9489 23.7344 85.8338 24.071L83.6733 23.7642C83.8438 23.1676 84.125 22.669 84.517 22.2685C84.9091 21.8636 85.3885 21.5611 85.9553 21.3608C86.522 21.1562 87.1484 21.054 87.8345 21.054C88.3075 21.054 88.7784 21.1094 89.2472 21.2202C89.7159 21.331 90.1442 21.5142 90.532 21.7699C90.9197 22.0213 91.2308 22.3643 91.4652 22.799C91.7038 23.2337 91.8232 23.777 91.8232 24.429V31H89.5987V29.6513H89.522C89.3814 29.924 89.1832 30.1797 88.9276 30.4183C88.6761 30.6527 88.3587 30.8423 87.9751 30.9872C87.5959 31.1278 87.1506 31.1982 86.6392 31.1982ZM87.2401 29.4979C87.7045 29.4979 88.1072 29.4062 88.4482 29.223C88.7891 29.0355 89.0511 28.7884 89.2344 28.4815C89.4219 28.1747 89.5156 27.8402 89.5156 27.478V26.321C89.4432 26.3807 89.3196 26.4361 89.1449 26.4872C88.9744 26.5384 88.7827 26.5831 88.5696 26.6214C88.3565 26.6598 88.1456 26.6939 87.9368 26.7237C87.728 26.7536 87.5469 26.7791 87.3935 26.8004C87.0483 26.8473 86.7393 26.924 86.4666 27.0305C86.1939 27.1371 85.9787 27.2862 85.821 27.478C85.6634 27.6655 85.5845 27.9084 85.5845 28.2067C85.5845 28.6328 85.7401 28.9545 86.0511 29.1719C86.3622 29.3892 86.7585 29.4979 87.2401 29.4979ZM98.4197 34.8864C97.5888 34.8864 96.875 34.7734 96.2784 34.5476C95.6818 34.326 95.2024 34.0277 94.8402 33.6527C94.478 33.2777 94.2266 32.8622 94.0859 32.4062L96.1697 31.9013C96.2635 32.093 96.3999 32.2827 96.5788 32.4702C96.7578 32.6619 96.9986 32.8196 97.3011 32.9432C97.608 33.071 97.9936 33.1349 98.4581 33.1349C99.1143 33.1349 99.6577 32.9751 100.088 32.6555C100.518 32.3402 100.734 31.8203 100.734 31.0959V29.2358H100.619C100.499 29.4744 100.325 29.7195 100.094 29.9709C99.8686 30.2223 99.5682 30.4332 99.1932 30.6037C98.8224 30.7741 98.3558 30.8594 97.7933 30.8594C97.0391 30.8594 96.3551 30.6825 95.7415 30.3288C95.1321 29.9709 94.6463 29.4382 94.2841 28.7308C93.9261 28.0192 93.7472 27.1286 93.7472 26.0589C93.7472 24.9808 93.9261 24.071 94.2841 23.3295C94.6463 22.5838 95.1342 22.0192 95.7479 21.6357C96.3615 21.2479 97.0455 21.054 97.7997 21.054C98.375 21.054 98.848 21.152 99.2188 21.348C99.5938 21.5398 99.892 21.772 100.114 22.0447C100.335 22.3132 100.504 22.5668 100.619 22.8054H100.746V21.1818H103.028V31.1598C103.028 31.9993 102.828 32.6939 102.428 33.2436C102.027 33.7933 101.479 34.2045 100.785 34.4773C100.09 34.75 99.3018 34.8864 98.4197 34.8864ZM98.4389 29.044C98.929 29.044 99.3466 28.9247 99.6918 28.6861C100.037 28.4474 100.299 28.1044 100.478 27.657C100.657 27.2095 100.746 26.6726 100.746 26.0462C100.746 25.4283 100.657 24.8871 100.478 24.4226C100.303 23.9581 100.043 23.598 99.6982 23.3423C99.3572 23.0824 98.9375 22.9524 98.4389 22.9524C97.9233 22.9524 97.4929 23.0866 97.1477 23.3551C96.8026 23.6236 96.5426 23.9922 96.3679 24.4609C96.1932 24.9254 96.1058 25.4538 96.1058 26.0462C96.1058 26.647 96.1932 27.1733 96.3679 27.625C96.5469 28.0724 96.8089 28.4219 97.1541 28.6733C97.5036 28.9205 97.9318 29.044 98.4389 29.044ZM105.4 31V21.1818H107.643V22.8182H107.746C107.925 22.2514 108.232 21.8146 108.666 21.5078C109.105 21.1967 109.606 21.0412 110.168 21.0412C110.296 21.0412 110.439 21.0476 110.597 21.0604C110.759 21.0689 110.893 21.0838 110.999 21.1051V23.2337C110.901 23.1996 110.746 23.1697 110.533 23.1442C110.324 23.1143 110.121 23.0994 109.925 23.0994C109.504 23.0994 109.124 23.1911 108.788 23.3743C108.455 23.5533 108.193 23.8026 108.001 24.1222C107.81 24.4418 107.714 24.8104 107.714 25.228V31H105.4ZM115.186 31.1982C114.564 31.1982 114.004 31.0874 113.505 30.8658C113.011 30.6399 112.619 30.3075 112.329 29.8686C112.043 29.4297 111.901 28.8885 111.901 28.245C111.901 27.6911 112.003 27.233 112.207 26.8707C112.412 26.5085 112.691 26.2188 113.045 26.0014C113.398 25.7841 113.797 25.62 114.24 25.5092C114.688 25.3942 115.15 25.3111 115.627 25.2599C116.202 25.2003 116.669 25.147 117.027 25.1001C117.385 25.049 117.645 24.9723 117.807 24.87C117.973 24.7635 118.056 24.5994 118.056 24.3778V24.3395C118.056 23.858 117.913 23.4851 117.628 23.2209C117.342 22.9567 116.931 22.8246 116.394 22.8246C115.827 22.8246 115.378 22.9482 115.045 23.1953C114.717 23.4425 114.496 23.7344 114.381 24.071L112.22 23.7642C112.391 23.1676 112.672 22.669 113.064 22.2685C113.456 21.8636 113.935 21.5611 114.502 21.3608C115.069 21.1562 115.695 21.054 116.381 21.054C116.854 21.054 117.325 21.1094 117.794 21.2202C118.263 21.331 118.691 21.5142 119.079 21.7699C119.467 22.0213 119.778 22.3643 120.012 22.799C120.251 23.2337 120.37 23.777 120.37 24.429V31H118.146V29.6513H118.069C117.928 29.924 117.73 30.1797 117.474 30.4183C117.223 30.6527 116.906 30.8423 116.522 30.9872C116.143 31.1278 115.697 31.1982 115.186 31.1982ZM115.787 29.4979C116.251 29.4979 116.654 29.4062 116.995 29.223C117.336 29.0355 117.598 28.7884 117.781 28.4815C117.969 28.1747 118.062 27.8402 118.062 27.478V26.321C117.99 26.3807 117.866 26.4361 117.692 26.4872C117.521 26.5384 117.33 26.5831 117.116 26.6214C116.903 26.6598 116.692 26.6939 116.484 26.7237C116.275 26.7536 116.094 26.7791 115.94 26.8004C115.595 26.8473 115.286 26.924 115.013 27.0305C114.741 27.1371 114.526 27.2862 114.368 27.478C114.21 27.6655 114.131 27.9084 114.131 28.2067C114.131 28.6328 114.287 28.9545 114.598 29.1719C114.909 29.3892 115.305 29.4979 115.787 29.4979ZM122.697 31V21.1818H124.908V22.8501H125.023C125.228 22.2876 125.567 21.8487 126.04 21.5334C126.513 21.2138 127.077 21.054 127.734 21.054C128.398 21.054 128.959 21.2159 129.415 21.5398C129.875 21.8594 130.199 22.2962 130.386 22.8501H130.489C130.706 22.3047 131.072 21.87 131.588 21.5462C132.108 21.218 132.724 21.054 133.435 21.054C134.339 21.054 135.076 21.3395 135.647 21.9105C136.218 22.4815 136.504 23.3146 136.504 24.4098V31H134.183V24.7678C134.183 24.1584 134.021 23.7131 133.697 23.4318C133.374 23.1463 132.977 23.0036 132.509 23.0036C131.95 23.0036 131.513 23.1783 131.198 23.5277C130.887 23.8729 130.732 24.3224 130.732 24.8764V31H128.462V24.6719C128.462 24.1648 128.309 23.7599 128.002 23.4574C127.7 23.1548 127.303 23.0036 126.813 23.0036C126.481 23.0036 126.178 23.0888 125.906 23.2592C125.633 23.4254 125.415 23.6619 125.254 23.9688C125.092 24.2713 125.011 24.625 125.011 25.0298V31H122.697Z" fill="white"/>
<path d="M25.8 13H34.2C37.4 13 40 15.6 40 18.8V27.2C40 28.7383 39.3889 30.2135 38.3012 31.3012C37.2135 32.3889 35.7383 33 34.2 33H25.8C22.6 33 20 30.4 20 27.2V18.8C20 17.2617 20.6111 15.7865 21.6988 14.6988C22.7865 13.6111 24.2617 13 25.8 13ZM25.6 15C24.6452 15 23.7295 15.3793 23.0544 16.0544C22.3793 16.7295 22 17.6452 22 18.6V27.4C22 29.39 23.61 31 25.6 31H34.4C35.3548 31 36.2705 30.6207 36.9456 29.9456C37.6207 29.2705 38 28.3548 38 27.4V18.6C38 16.61 36.39 15 34.4 15H25.6ZM35.25 16.5C35.5815 16.5 35.8995 16.6317 36.1339 16.8661C36.3683 17.1005 36.5 17.4185 36.5 17.75C36.5 18.0815 36.3683 18.3995 36.1339 18.6339C35.8995 18.8683 35.5815 19 35.25 19C34.9185 19 34.6005 18.8683 34.3661 18.6339C34.1317 18.3995 34 18.0815 34 17.75C34 17.4185 34.1317 17.1005 34.3661 16.8661C34.6005 16.6317 34.9185 16.5 35.25 16.5ZM30 18C31.3261 18 32.5979 18.5268 33.5355 19.4645C34.4732 20.4021 35 21.6739 35 23C35 24.3261 34.4732 25.5979 33.5355 26.5355C32.5979 27.4732 31.3261 28 30 28C28.6739 28 27.4021 27.4732 26.4645 26.5355C25.5268 25.5979 25 24.3261 25 23C25 21.6739 25.5268 20.4021 26.4645 19.4645C27.4021 18.5268 28.6739 18 30 18ZM30 20C29.2044 20 28.4413 20.3161 27.8787 20.8787C27.3161 21.4413 27 22.2044 27 23C27 23.7956 27.3161 24.5587 27.8787 25.1213C28.4413 25.6839 29.2044 26 30 26C30.7956 26 31.5587 25.6839 32.1213 25.1213C32.6839 24.5587 33 23.7956 33 23C33 22.2044 32.6839 21.4413 32.1213 20.8787C31.5587 20.3161 30.7956 20 30 20Z" fill="white"/>
</svg>
