<svg width="158" height="48" viewBox="0 0 158 48" fill="none" xmlns="http://www.w3.org/2000/svg">
<rect width="158" height="48" rx="4" fill="black"/>
<path d="M58.2912 31V17.9091H60.6626V29.0121H66.4283V31H58.2912ZM68.3842 31V21.1818H70.6982V31H68.3842ZM69.5476 19.7884C69.1811 19.7884 68.8658 19.6669 68.6016 19.424C68.3374 19.1768 68.2053 18.8807 68.2053 18.5355C68.2053 18.1861 68.3374 17.8899 68.6016 17.647C68.8658 17.3999 69.1811 17.2763 69.5476 17.2763C69.9183 17.2763 70.2337 17.3999 70.4936 17.647C70.7578 17.8899 70.8899 18.1861 70.8899 18.5355C70.8899 18.8807 70.7578 19.1768 70.4936 19.424C70.2337 19.6669 69.9183 19.7884 69.5476 19.7884ZM75.3915 25.2472V31H73.0776V21.1818H75.2892V22.8501H75.4043C75.6301 22.3004 75.9902 21.8636 76.4846 21.5398C76.9831 21.2159 77.5989 21.054 78.3319 21.054C79.0094 21.054 79.5996 21.1989 80.1025 21.4886C80.6096 21.7784 81.0016 22.1982 81.2786 22.7479C81.5598 23.2976 81.6983 23.9645 81.6941 24.7486V31H79.3801V25.1065C79.3801 24.4503 79.2097 23.9368 78.8688 23.5661C78.5321 23.1953 78.0655 23.0099 77.4689 23.0099C77.0641 23.0099 76.704 23.0994 76.3887 23.2784C76.0776 23.4531 75.8326 23.7067 75.6536 24.0391C75.4789 24.3714 75.3915 24.7741 75.3915 25.2472ZM86.1557 27.919L86.1493 25.1257H86.5201L90.0485 21.1818H92.7523L88.4121 26.0142H87.9327L86.1557 27.919ZM84.0463 31V17.9091H86.3603V31H84.0463ZM90.2083 31L87.0123 26.532L88.5719 24.902L92.976 31H90.2083ZM98.2367 31.1918C97.2523 31.1918 96.4022 30.9872 95.6863 30.5781C94.9746 30.1648 94.427 29.581 94.0435 28.8267C93.66 28.0682 93.4682 27.1754 93.4682 26.1484C93.4682 25.1385 93.66 24.2521 94.0435 23.4893C94.4313 22.7223 94.9725 22.1257 95.6671 21.6996C96.3617 21.2692 97.1777 21.054 98.1152 21.054C98.7203 21.054 99.2914 21.152 99.8283 21.348C100.369 21.5398 100.847 21.8381 101.26 22.2429C101.678 22.6477 102.006 23.1634 102.244 23.7898C102.483 24.4119 102.602 25.1534 102.602 26.0142V26.7237H94.5549V25.1641H100.384C100.38 24.7209 100.284 24.3267 100.097 23.9815C99.9093 23.6321 99.6472 23.3572 99.3105 23.157C98.9782 22.9567 98.5904 22.8565 98.1472 22.8565C97.6742 22.8565 97.2587 22.9716 96.9007 23.2017C96.5428 23.4276 96.2637 23.7259 96.0634 24.0966C95.8674 24.4631 95.7672 24.8658 95.763 25.3047V26.6662C95.763 27.2372 95.8674 27.7273 96.0762 28.1364C96.285 28.5412 96.5769 28.8523 96.9519 29.0696C97.3269 29.2827 97.7658 29.3892 98.2686 29.3892C98.6053 29.3892 98.91 29.3423 99.1827 29.2486C99.4554 29.1506 99.6919 29.0078 99.8922 28.8203C100.093 28.6328 100.244 28.4006 100.346 28.1236L102.507 28.3665C102.37 28.9375 102.11 29.4361 101.727 29.8622C101.347 30.2841 100.862 30.6122 100.269 30.8466C99.677 31.0767 98.9995 31.1918 98.2367 31.1918ZM108.203 31.1726C107.432 31.1726 106.742 30.9744 106.132 30.5781C105.523 30.1818 105.042 29.6065 104.688 28.8523C104.334 28.098 104.157 27.1818 104.157 26.1037C104.157 25.0128 104.336 24.0923 104.694 23.3423C105.056 22.5881 105.544 22.0192 106.158 21.6357C106.772 21.2479 107.456 21.054 108.21 21.054C108.785 21.054 109.258 21.152 109.629 21.348C110 21.5398 110.294 21.772 110.511 22.0447C110.728 22.3132 110.897 22.5668 111.016 22.8054H111.112V17.9091H113.432V31H111.157V29.4531H111.016C110.897 29.6918 110.724 29.9453 110.498 30.2138C110.272 30.478 109.974 30.7038 109.603 30.8913C109.233 31.0788 108.766 31.1726 108.203 31.1726ZM108.849 29.2741C109.339 29.2741 109.757 29.142 110.102 28.8778C110.447 28.6094 110.709 28.2365 110.888 27.7592C111.067 27.282 111.157 26.7259 111.157 26.0909C111.157 25.456 111.067 24.9041 110.888 24.4354C110.713 23.9666 110.453 23.6023 110.108 23.3423C109.767 23.0824 109.348 22.9524 108.849 22.9524C108.333 22.9524 107.903 23.0866 107.558 23.3551C107.213 23.6236 106.953 23.9943 106.778 24.4673C106.603 24.9403 106.516 25.4815 106.516 26.0909C106.516 26.7045 106.603 27.2521 106.778 27.7337C106.957 28.2109 107.219 28.5881 107.564 28.8651C107.914 29.1378 108.342 29.2741 108.849 29.2741ZM115.898 31V21.1818H118.212V31H115.898ZM117.061 19.7884C116.695 19.7884 116.379 19.6669 116.115 19.424C115.851 19.1768 115.719 18.8807 115.719 18.5355C115.719 18.1861 115.851 17.8899 116.115 17.647C116.379 17.3999 116.695 17.2763 117.061 17.2763C117.432 17.2763 117.747 17.3999 118.007 17.647C118.271 17.8899 118.404 18.1861 118.404 18.5355C118.404 18.8807 118.271 19.1768 118.007 19.424C117.747 19.6669 117.432 19.7884 117.061 19.7884ZM122.905 25.2472V31H120.591V21.1818H122.803V22.8501H122.918C123.144 22.3004 123.504 21.8636 123.998 21.5398C124.497 21.2159 125.113 21.054 125.846 21.054C126.523 21.054 127.113 21.1989 127.616 21.4886C128.123 21.7784 128.515 22.1982 128.792 22.7479C129.074 23.2976 129.212 23.9645 129.208 24.7486V31H126.894V25.1065C126.894 24.4503 126.723 23.9368 126.382 23.5661C126.046 23.1953 125.579 23.0099 124.983 23.0099C124.578 23.0099 124.218 23.0994 123.902 23.2784C123.591 23.4531 123.346 23.7067 123.167 24.0391C122.993 24.3714 122.905 24.7741 122.905 25.2472Z" fill="white"/>
<path d="M44 14C44.5304 14 45.0391 14.2107 45.4142 14.5858C45.7893 14.9609 46 15.4696 46 16V30C46 30.5304 45.7893 31.0391 45.4142 31.4142C45.0391 31.7893 44.5304 32 44 32H30C29.4696 32 28.9609 31.7893 28.5858 31.4142C28.2107 31.0391 28 30.5304 28 30V16C28 15.4696 28.2107 14.9609 28.5858 14.5858C28.9609 14.2107 29.4696 14 30 14H44ZM43.5 29.5V24.2C43.5 23.3354 43.1565 22.5062 42.5452 21.8948C41.9338 21.2835 41.1046 20.94 40.24 20.94C39.39 20.94 38.4 21.46 37.92 22.24V21.13H35.13V29.5H37.92V24.57C37.92 23.8 38.54 23.17 39.31 23.17C39.6813 23.17 40.0374 23.3175 40.2999 23.5801C40.5625 23.8426 40.71 24.1987 40.71 24.57V29.5H43.5ZM31.88 19.56C32.3256 19.56 32.7529 19.383 33.0679 19.0679C33.383 18.7529 33.56 18.3256 33.56 17.88C33.56 16.95 32.81 16.19 31.88 16.19C31.4318 16.19 31.0019 16.3681 30.685 16.685C30.3681 17.0019 30.19 17.4318 30.19 17.88C30.19 18.81 30.95 19.56 31.88 19.56ZM33.27 29.5V21.13H30.5V29.5H33.27Z" fill="white"/>
</svg>
