<svg width="170" height="170" viewBox="0 0 170 170" fill="none" xmlns="http://www.w3.org/2000/svg">
<path d="M77.5 4.33013C82.141 1.65064 87.859 1.65064 92.5 4.33013L151.112 38.1699C155.753 40.8494 158.612 45.8013 158.612 51.1603V118.84C158.612 124.199 155.753 129.151 151.112 131.83L92.5 165.67C87.859 168.349 82.141 168.349 77.5 165.67L18.8878 131.83C14.2468 129.151 11.3878 124.199 11.3878 118.84V51.1603C11.3878 45.8013 14.2468 40.8494 18.8878 38.1699L77.5 4.33013Z" fill="black"/>
<path d="M73.7728 32.2962C74.3189 31.028 75.7896 30.4427 77.0578 30.9888C78.3259 31.5348 78.9112 33.0055 78.3652 34.2737L53.2503 92.5972L52.3319 92.2017C50.3029 91.328 49.3663 88.9749 50.24 86.9459L73.7728 32.2962Z" fill="white"/>
<path d="M78.5359 32.6532C77.994 31.3833 76.5253 30.7931 75.2553 31.335C73.9854 31.8769 73.3952 33.3456 73.9371 34.6156L119.375 141.102L120.294 140.709C122.326 139.842 123.271 137.492 122.404 135.461L78.5359 32.6532Z" fill="white"/>
<path d="M51.9641 57.4233C50.0509 56.3187 47.6046 56.9742 46.5 58.8874L46 59.7534L118.784 101.775L119.284 100.909C120.389 98.9962 119.733 96.5498 117.82 95.4453L51.9641 57.4233Z" fill="white"/>
</svg>
