<svg width="158" height="48" viewBox="0 0 158 48" fill="none" xmlns="http://www.w3.org/2000/svg">
<rect width="158" height="48" rx="4" fill="black"/>
<path d="M63.7159 19.897V17.9091H74.1605V19.897H70.1143V31H67.7621V19.897H63.7159ZM76.973 31L74.1989 21.1818H76.5575L78.2834 28.0852H78.3729L80.1371 21.1818H82.4702L84.2344 28.0469H84.3303L86.0305 21.1818H88.3956L85.6151 31H83.2053L81.3643 24.3651H81.2301L79.3892 31H76.973ZM90.0112 31V21.1818H92.3251V31H90.0112ZM91.1745 19.7884C90.8081 19.7884 90.4927 19.6669 90.2285 19.424C89.9643 19.1768 89.8322 18.8807 89.8322 18.5355C89.8322 18.1861 89.9643 17.8899 90.2285 17.647C90.4927 17.3999 90.8081 17.2763 91.1745 17.2763C91.5453 17.2763 91.8606 17.3999 92.1206 17.647C92.3848 17.8899 92.5169 18.1861 92.5169 18.5355C92.5169 18.8807 92.3848 19.1768 92.1206 19.424C91.8606 19.6669 91.5453 19.7884 91.1745 19.7884ZM99.6072 21.1818V22.9716H93.9631V21.1818H99.6072ZM95.3565 18.8295H97.6705V28.0469C97.6705 28.358 97.7173 28.5966 97.8111 28.7628C97.9091 28.9247 98.0369 29.0355 98.1946 29.0952C98.3523 29.1548 98.527 29.1847 98.7188 29.1847C98.8636 29.1847 98.9957 29.174 99.1151 29.1527C99.2386 29.1314 99.3324 29.1122 99.3963 29.0952L99.7862 30.9041C99.6626 30.9467 99.4858 30.9936 99.2557 31.0447C99.0298 31.0959 98.7528 31.1257 98.4247 31.1342C97.8452 31.1513 97.3232 31.0639 96.8587 30.8722C96.3942 30.6761 96.0256 30.3736 95.7528 29.9645C95.4844 29.5554 95.3523 29.044 95.3565 28.4304V18.8295ZM106.445 21.1818V22.9716H100.801V21.1818H106.445ZM102.194 18.8295H104.508V28.0469C104.508 28.358 104.555 28.5966 104.649 28.7628C104.747 28.9247 104.875 29.0355 105.032 29.0952C105.19 29.1548 105.365 29.1847 105.557 29.1847C105.702 29.1847 105.834 29.174 105.953 29.1527C106.077 29.1314 106.17 29.1122 106.234 29.0952L106.624 30.9041C106.501 30.9467 106.324 30.9936 106.094 31.0447C105.868 31.0959 105.591 31.1257 105.263 31.1342C104.683 31.1513 104.161 31.0639 103.697 30.8722C103.232 30.6761 102.863 30.3736 102.591 29.9645C102.322 29.5554 102.19 29.044 102.194 28.4304V18.8295ZM112.621 31.1918C111.637 31.1918 110.787 30.9872 110.071 30.5781C109.359 30.1648 108.812 29.581 108.428 28.8267C108.045 28.0682 107.853 27.1754 107.853 26.1484C107.853 25.1385 108.045 24.2521 108.428 23.4893C108.816 22.7223 109.357 22.1257 110.052 21.6996C110.746 21.2692 111.562 21.054 112.5 21.054C113.105 21.054 113.676 21.152 114.213 21.348C114.754 21.5398 115.232 21.8381 115.645 22.2429C116.063 22.6477 116.391 23.1634 116.629 23.7898C116.868 24.4119 116.987 25.1534 116.987 26.0142V26.7237H108.94V25.1641H114.769C114.765 24.7209 114.669 24.3267 114.482 23.9815C114.294 23.6321 114.032 23.3572 113.695 23.157C113.363 22.9567 112.975 22.8565 112.532 22.8565C112.059 22.8565 111.643 22.9716 111.286 23.2017C110.928 23.4276 110.648 23.7259 110.448 24.0966C110.252 24.4631 110.152 24.8658 110.148 25.3047V26.6662C110.148 27.2372 110.252 27.7273 110.461 28.1364C110.67 28.5412 110.962 28.8523 111.337 29.0696C111.712 29.2827 112.151 29.3892 112.653 29.3892C112.99 29.3892 113.295 29.3423 113.567 29.2486C113.84 29.1506 114.077 29.0078 114.277 28.8203C114.477 28.6328 114.629 28.4006 114.731 28.1236L116.891 28.3665C116.755 28.9375 116.495 29.4361 116.112 29.8622C115.732 30.2841 115.246 30.6122 114.654 30.8466C114.062 31.0767 113.384 31.1918 112.621 31.1918ZM118.945 31V21.1818H121.188V22.8182H121.291C121.47 22.2514 121.776 21.8146 122.211 21.5078C122.65 21.1967 123.151 21.0412 123.713 21.0412C123.841 21.0412 123.984 21.0476 124.142 21.0604C124.303 21.0689 124.438 21.0838 124.544 21.1051V23.2337C124.446 23.1996 124.291 23.1697 124.078 23.1442C123.869 23.1143 123.666 23.0994 123.47 23.0994C123.048 23.0994 122.669 23.1911 122.333 23.3743C122 23.5533 121.738 23.8026 121.546 24.1222C121.355 24.4418 121.259 24.8104 121.259 25.228V31H118.945Z" fill="white"/>
<path d="M53.92 16C53.15 16.35 52.32 16.58 51.46 16.69C52.34 16.16 53.02 15.32 53.34 14.31C52.51 14.81 51.59 15.16 50.62 15.36C49.83 14.5 48.72 14 47.46 14C45.11 14 43.19 15.92 43.19 18.29C43.19 18.63 43.23 18.96 43.3 19.27C39.74 19.09 36.57 17.38 34.46 14.79C34.09 15.42 33.88 16.16 33.88 16.94C33.88 18.43 34.63 19.75 35.79 20.5C35.08 20.5 34.42 20.3 33.84 20C33.84 20 33.84 20 33.84 20.03C33.84 22.11 35.32 23.85 37.28 24.24C36.92 24.34 36.54 24.39 36.15 24.39C35.88 24.39 35.61 24.36 35.35 24.31C35.89 26 37.46 27.26 39.35 27.29C37.89 28.45 36.04 29.13 34.02 29.13C33.68 29.13 33.34 29.11 33 29.07C34.9 30.29 37.16 31 39.58 31C47.46 31 51.79 24.46 51.79 18.79C51.79 18.6 51.79 18.42 51.78 18.23C52.62 17.63 53.34 16.87 53.92 16Z" fill="white"/>
</svg>
