<svg width="35" height="35" viewBox="0 0 35 35" fill="none" xmlns="http://www.w3.org/2000/svg">
<path d="M6.5625 2.17896C2.96509 2.17896 0 5.14404 0 8.74146V26.2415C0 29.8389 2.96509 32.804 6.5625 32.804H28.4375C32.0349 32.804 35 29.8389 35 26.2415V8.74146C35 5.14404 32.0349 2.17896 28.4375 2.17896H6.5625ZM6.5625 6.55396H28.4375C29.6851 6.55396 30.625 7.4939 30.625 8.74146V26.2415C30.625 27.489 29.6851 28.429 28.4375 28.429H6.5625C5.31494 28.429 4.375 27.489 4.375 26.2415V8.74146C4.375 7.4939 5.31494 6.55396 6.5625 6.55396Z" fill="#FFBD08"/>
<path d="M32.8125 20.7727H2.1875V30.6165H32.8125V20.7727Z" fill="#FFBD08" fill-opacity="0.349"/>
<path d="M2.1875 21.8665V19.679H32.8125V21.8665H2.1875Z" fill="#FFBD08"/>
</svg>
